#!OML:ASF F:\VICON\USERDATA\Patient Classification 1\PLAYGROUND\JustinFriday\JustinFriday.ASF
:FULLY-SPECIFIED
:DEGREES
3209
root 25.5935 18.1206 43.3846 363.33 -206.334 9.71402
lowerback 0.274412 -0.594315 7.02042
upperback 10.2266 -0.492164 3.33096
thorax 10.7344 0.614289 -0.295096
lowerneck -16.2324 6.22398 -15.0018
upperneck 6.72597 11.0526 4.30209
head 3.56094 5.37245 4.41633
rclavicle 3.61788e-014 1.70955e-014
rhumerus -5.30815 0.952138 -80.2786
rradius 20.171
rwrist -6.51463
rhand -16.3761 -19.2421
rfingers 7.12502
rthumb 9.83728 -48.9923
lclavicle 3.61788e-014 1.70955e-014
lhumerus -21.1541 28.7663 90.4098
lradius 22.3401
lwrist -0.242881
lhand -25.6153 -12.6128
lfingers 7.12502
lthumb 0.91727 17.365
rfemur 2.34321 -1.65664 23.7609
rtibia 51.1553
rfoot 45.6977 -5.22085
rtoes 68.5278
lfemur -19.3086 13.1213 -18.773
ltibia 25.8004
lfoot -8.64308 2.92685
ltoes 16.9078
3210
root 25.6355 18.1249 43.2531 362.435 -206.429 9.09809
lowerback 0.628115 -0.749041 6.49751
upperback 10.3694 -0.620312 3.11679
thorax 10.6685 0.522007 -0.246374
lowerneck -15.5869 6.69605 -15.3302
upperneck 5.75965 11.6024 4.54924
head 3.07283 5.70161 4.48814
rclavicle -1.05356e-014 7.95139e-016
rhumerus -5.29585 -0.380758 -80.6767
rradius 18.5567
rwrist -4.61526
rhand -16.3981 -18.4186
rfingers 7.12502
rthumb 9.81605 -48.1698
lclavicle -1.05356e-014 7.95139e-016
lhumerus -20.9239 29.5974 89.9817
lradius 23.4044
lwrist 1.70665
lhand -26.4321 -13.7227
lfingers 7.12502
lthumb 0.128388 16.257
rfemur 1.41172 -1.21385 23.0527
rtibia 53.5457
rfoot 45.3768 -4.99206
rtoes 68.4983
lfemur -17.839 12.8117 -19.1991
ltibia 25.5153
lfoot -9.40008 2.96727
ltoes 16.008
3211
root 25.6661 18.1264 43.126 361.686 -206.128 8.90048
lowerback 1.14983 -0.859533 6.25448
upperback 10.4826 -0.681039 3.12549
thorax 10.4775 0.482533 -0.10576
lowerneck -16.1404 6.3484 -15.464
upperneck 7.1898 11.2505 4.73779
head 3.61922 5.45995 4.63584
rclavicle -4.44284e-014 -5.08889e-014
rhumerus -5.38863 -2.17854 -80.7602
rradius 17.0178
rwrist -2.3447
rhand -17.1195 -18.1932
rfingers 7.12502
rthumb 9.12 -47.976
lclavicle -4.44284e-014 -5.08889e-014
lhumerus -20.6738 29.4961 90.0398
lradius 24.7291
lwrist 3.44782
lhand -27.0684 -14.7467
lfingers 7.12502
lthumb -0.48613 15.2325
rfemur 0.599356 -1.01963 22.7892
rtibia 55.7789
rfoot 44.632 -5.31127
rtoes 68.5286
lfemur -16.3612 11.9213 -19.2586
ltibia 25.104
lfoot -9.3812 3.83044
ltoes 17.2738
3212
root 25.6706 18.1359 42.9739 361.775 -204.341 8.78936
lowerback 1.36938 -0.485398 5.78695
upperback 10.1889 -0.148465 3.69251
thorax 10.0357 0.663892 0.787206
lowerneck -17.0477 5.45356 -14.6142
upperneck 8.54412 10.1365 4.08133
head 4.37931 4.82206 4.3584
rclavicle 1.68967e-015 -4.85035e-014
rhumerus -6.12708 -5.38511 -79.4657
rradius 16.0329
rwrist -0.761389
rhand -18.5553 -18.674
rfingers 7.12502
rthumb 7.73438 -48.5126
lclavicle 1.68967e-015 -4.85035e-014
lhumerus -20.0115 27.3873 91.5013
lradius 25.264
lwrist 3.49677
lhand -27.2509 -14.9141
lfingers 7.12502
lthumb -0.66241 15.0646
rfemur -0.904357 -2.30493 22.5057
rtibia 57.8539
rfoot 43.4815 -5.61613
rtoes 68.5911
lfemur -15.9388 9.65373 -19.5279
ltibia 24.6252
lfoot -9.21798 4.49048
ltoes 18.0014
3213
root 25.7142 18.151 42.8467 360.981 -204.152 8.27934
lowerback 1.71076 -0.617484 5.2787
upperback 10.3241 -0.257488 3.57897
thorax 9.97579 0.581385 0.940071
lowerneck -16.9361 5.7175 -14.8
upperneck 8.56106 10.5039 4.13127
head 4.31974 5.00073 4.41449
rclavicle 3.72721e-014 3.57812e-014
rhumerus -6.23544 -7.46939 -79.5296
rradius 14.7335
rwrist 2.37007
rhand -18.6289 -17.9493
rfingers 7.12502
rthumb 7.66337 -47.7905
lclavicle 3.72721e-014 3.57812e-014
lhumerus -19.5995 27.3072 91.5349
lradius 25.2549
lwrist 2.03432
lhand -26.6327 -13.1739
lfingers 7.12502
lthumb -0.0653787 16.8058
rfemur -1.68031 -2.10872 21.9229
rtibia 59.8253
rfoot 42.2365 -6.03839
rtoes 68.671
lfemur -14.4697 8.75648 -19.8928
ltibia 24.0897
lfoot -9.38869 5.08564
ltoes 18.6496
3214
root 25.7514 18.1639 42.7237 360.254 -203.853 7.5477
lowerback 1.915 -0.64109 4.48724
upperback 10.387 -0.237865 3.47327
thorax 9.92 0.528585 1.26596
lowerneck -16.4569 6.01478 -14.7291
upperneck 8.26283 10.8081 4.04843
head 4.12958 5.16211 4.35923
rclavicle -1.98785e-016 4.37326e-014
rhumerus -6.29508 -13.1814 -79.0882
rradius 13.0086
rwrist 9.57104
rhand -17.044 -15.6935
rfingers 7.12502
rthumb 9.19291 -45.4731
lclavicle -1.98785e-016 4.37326e-014
lhumerus -19.2323 26.1995 91.9458
lradius 24.3024
lwrist -1.06847
lhand -24.8721 -9.58471
lfingers 7.12502
lthumb 1.63509 20.3888
rfemur -2.71315 -1.97124 21.1155
rtibia 61.781
rfoot 40.8682 -6.36012
rtoes 68.7621
lfemur -13.2005 7.81103 -20.5819
ltibia 23.5534
lfoot -9.51719 5.62466
ltoes 18.3011
3215
root 25.7777 18.1808 42.5859 360.35 -201.833 6.93935
lowerback 2.12586 -0.673363 3.5692
upperback 10.014 -0.267244 3.71215
thorax 9.37502 0.404138 2.00922
lowerneck -17.71 5.72618 -14.2723
upperneck 9.22787 10.5811 3.79825
head 4.6912 4.99801 4.30025
rclavicle 4.1546e-014 -1.59028e-014
rhumerus -6.93124 -16.7727 -78.1732
rradius 12.5392
rwrist 12.3353
rhand -17.8249 -18.5647
rfingers 7.12502
rthumb 8.43934 -48.3761
lclavicle 4.1546e-014 -1.59028e-014
lhumerus -18.5943 24.3728 92.859
lradius 23.7499
lwrist -2.1496
lhand -24.2516 -7.89109
lfingers 7.12502
lthumb 2.23432 22.077
rfemur -4.36204 -3.3944 20.466
rtibia 63.6034
rfoot 39.3454 -6.41152
rtoes 68.8496
lfemur -12.9389 5.86447 -21.3694
ltibia 23.0484
lfoot -9.43735 5.66013
ltoes 19.9151
3216
root 25.8213 18.1863 42.4698 359.987 -201.38 6.6341
lowerback 2.21937 -0.840893 3.1848
upperback 10.028 -0.472646 3.64581
thorax 9.33819 0.274229 2.13978
lowerneck -17.0874 6.08291 -14.425
upperneck 8.20978 10.9477 3.95297
head 4.22013 5.23882 4.31992
rclavicle -8.44835e-014 3.73715e-014
rhumerus -7.25265 -18.5099 -78.1776
rradius 11.9768
rwrist 14.1939
rhand -18.4552 -20.3784
rfingers 7.12502
rthumb 7.83101 -50.2134
lclavicle -8.44835e-014 3.73715e-014
lhumerus -18.0557 24.206 92.7645
lradius 24.311
lwrist -0.914948
lhand -24.8958 -7.76022
lfingers 7.12502
lthumb 1.61222 22.2134
rfemur -5.54804 -3.30864 20.2153
rtibia 65.2711
rfoot 38.0775 -6.39629
rtoes 68.9303
lfemur -11.9912 5.48704 -21.6716
ltibia 22.6183
lfoot -9.6129 5.54363
ltoes 18.9658
3217
root 25.8562 18.1844 42.3549 359.839 -200.643 6.60908
lowerback 2.3734 -0.878373 3.02316
upperback 9.9451 -0.509367 3.76625
thorax 9.15805 0.238117 2.35208
lowerneck -17.0778 5.9379 -14.3505
upperneck 8.42677 10.7622 3.80628
head 4.31743 5.12863 4.26338
rclavicle -8.74653e-015 2.06736e-014
rhumerus -7.83169 -20.7375 -77.735
rradius 11.4921
rwrist 15.3848
rhand -19.0652 -20.7658
rfingers 7.12502
rthumb 7.24222 -50.6219
lclavicle -8.74653e-015 2.06736e-014
lhumerus -17.4832 23.4143 93.046
lradius 25.7287
lwrist 1.98514
lhand -26.2499 -10.1258
lfingers 7.12502
lthumb 0.304383 19.8537
rfemur -6.80369 -3.4154 20.2356
rtibia 66.6917
rfoot 36.892 -6.81431
rtoes 69.0212
lfemur -11.369 5.59612 -21.7282
ltibia 22.4108
lfoot -9.4673 4.82284
ltoes 22.1432
3218
root 25.8734 18.1825 42.2299 359.856 -199.356 6.47306
lowerback 2.57556 -0.705066 2.66906
upperback 9.7087 -0.266348 4.04945
thorax 8.77612 0.313429 2.85294
lowerneck -17.7742 5.65188 -14.1516
upperneck 9.49393 10.4629 3.86023
head 4.79837 4.93503 4.30894
rclavicle 3.45885e-014 2.66371e-014
rhumerus -8.66792 -25.6363 -76.3451
rradius 11.8275
rwrist 21.4098
rhand -15.2571 -28.5724
rfingers 7.12502
rthumb 10.9168 -58.2686
lclavicle 3.45885e-014 2.66371e-014
lhumerus -16.9776 21.2365 94.0084
lradius 24.8482
lwrist -0.169978
lhand -24.4832 -7.30344
lfingers 7.12502
lthumb 2.01074 22.6668
rfemur -8.1814 -4.06264 20.0156
rtibia 67.8962
rfoot 35.8628 -7.51749
rtoes 69.1091
lfemur -11.0971 5.00056 -21.9803
ltibia 22.3993
lfoot -9.15838 4.19692
ltoes 22.7605
3219
root 25.8985 18.1909 42.098 359.664 -198.226 6.4377
lowerback 2.99563 -0.696589 2.4741
upperback 9.56177 -0.220195 4.25131
thorax 8.36916 0.317885 3.16824
lowerneck -18.6024 5.07723 -13.8396
upperneck 10.7081 9.80428 3.72638
head 5.40062 4.54879 4.26519
rclavicle 6.54002e-014 1.03368e-014
rhumerus -9.52081 -26.66 -75.6809
rradius 11.5009
rwrist 18.9189
rhand -17.5185 -24.5449
rfingers 7.12502
rthumb 8.73502 -54.3441
lclavicle 6.54002e-014 1.03368e-014
lhumerus -16.3894 20.2704 94.4472
lradius 25.6148
lwrist 1.29635
lhand -25.1782 -7.89876
lfingers 7.12502
lthumb 1.33947 22.0768
rfemur -9.16955 -4.53591 19.9444
rtibia 68.8204
rfoot 35.007 -8.54244
rtoes 69.1849
lfemur -10.4942 4.37512 -22.0593
ltibia 22.4357
lfoot -9.75477 3.76813
ltoes 20.5659
3220
root 25.9537 18.1948 41.9697 358.9 -198.02 6.38339
lowerback 3.62614 -1.05114 2.51575
upperback 9.722 -0.6238 4.09661
thorax 8.18986 0.145102 2.9659
lowerneck -18.9831 5.22078 -14.4225
upperneck 11.0425 10.1274 4.25657
head 5.47923 4.71032 4.56848
rclavicle 6.26172e-014 -5.56597e-015
rhumerus -9.88849 -25.5476 -76.1915
rradius 11.2953
rwrist 16.5127
rhand -18.6373 -21.5741
rfingers 7.12502
rthumb 7.65525 -51.4155
lclavicle 6.26172e-014 -5.56597e-015
lhumerus -16.0407 20.5893 93.9775
lradius 26.5655
lwrist 2.13821
lhand -25.0203 -6.68919
lfingers 7.12502
lthumb 1.492 23.2853
rfemur -9.52723 -4.00121 20.0084
rtibia 69.5525
rfoot 34.0992 -9.35144
rtoes 69.2585
lfemur -9.04618 4.86366 -22.0058
ltibia 22.261
lfoot -10.0475 3.3529
ltoes 18.8099
3221
root 25.9718 18.1919 41.8263 358.75 -197.536 6.16291
lowerback 3.58311 -0.903911 2.28313
upperback 9.65305 -0.431324 4.16599
thorax 8.13575 0.217316 3.17414
lowerneck -19.1501 5.16607 -14.0804
upperneck 11.2362 10.0358 4.02598
head 5.60696 4.64965 4.45498
rclavicle 1.11319e-014 -6.75868e-015
rhumerus -10.8187 -27.0317 -75.3561
rradius 11.3088
rwrist 16.4054
rhand -18.7482 -20.8504
rfingers 7.12502
rthumb 7.54821 -50.6957
lclavicle 1.11319e-014 -6.75868e-015
lhumerus -15.7023 19.4971 94.272
lradius 27.2015
lwrist 2.33887
lhand -24.2621 -6.17265
lfingers 7.12502
lthumb 2.22419 23.7955
rfemur -10.7145 -3.8557 19.6287
rtibia 70.2463
rfoot 33.4836 -9.20954
rtoes 69.3222
lfemur -8.32186 4.43319 -22.3744
ltibia 21.954
lfoot -10.1765 3.43404
ltoes 18.4252
3222
root 25.9895 18.1752 41.6795 358.236 -197.42 5.82826
lowerback 3.64466 -0.718485 2.05337
upperback 9.74275 -0.162791 4.14842
thorax 8.18987 0.339754 3.29657
lowerneck -19.462 4.89787 -13.7307
upperneck 12.014 9.71203 3.72414
head 5.97281 4.43987 4.33043
rclavicle -5.96354e-015 5.88403e-014
rhumerus -11.6767 -26.9485 -74.9573
rradius 11.7551
rwrist 14.0907
rhand -18.7686 -21.4832
rfingers 7.12502
rthumb 7.52851 -51.3292
lclavicle -5.96354e-015 5.88403e-014
lhumerus -15.3923 18.4714 94.5633
lradius 27.8503
lwrist 3.38397
lhand -24.8948 -9.29054
lfingers 7.12502
lthumb 1.61317 20.6831
rfemur -11.6209 -3.34191 19.101
rtibia 70.8308
rfoot 33.1368 -8.97822
rtoes 69.3712
lfemur -7.10642 4.11179 -22.8387
ltibia 21.5444
lfoot -10.5683 3.58321
ltoes 20.1946
